<?xml version="1.0" standalone="no"?><!DOCTYPE svg PUBLIC "-//W3C//DTD SVG 1.1//EN" "http://www.w3.org/Graphics/SVG/1.1/DTD/svg11.dtd"><svg t="1689656234978" class="icon" viewBox="0 0 1024 1024" version="1.1" xmlns="http://www.w3.org/2000/svg" p-id="4013" xmlns:xlink="http://www.w3.org/1999/xlink" width="512" height="512"><path d="M1024 254.144v56.384H0v-56.384c0-42.24 34.56-76.8 76.8-76.8h870.4c42.24 0 76.8 34.56 76.8 76.8zM0 378.432v391.488c0 42.24 34.56 76.8 76.8 76.8h870.4c42.24 0 76.8-34.56 76.8-76.8V378.432H0z m926.08 363.52c-6.144 6.144-14.592 9.984-23.936 9.984h-196.48c-18.624 0-33.92-15.296-33.92-33.92 0-9.344 3.84-17.856 9.984-24 6.144-6.144 14.592-9.984 23.936-9.984h196.48c18.688 0 33.92 15.296 33.92 33.984 0 9.344-3.84 17.792-9.984 23.936z" p-id="4014"></path></svg>